<?xml version="1.0" encoding="utf-8"?>
<svg width="100px" height="100px" viewBox="0 0 100 100" version="1.1" xmlns="http://www.w3.org/2000/svg">
  <polyline style="stroke: rgb(0, 0, 0); fill: none; stroke-width: 13;" points="27.428 13.587 33.634 10.087 39.878 8.326 46.441 7.446 52.845 7.366 59.729 8.166 66.692 10.011 72.841 13.525" transform=""/>
  <polyline style="stroke: rgb(0, 0, 0); fill: none; stroke-width: 13;" points="86.465 26.776 89.742 32.899 91.578 39.548 92.537 46.347 92.537 53.311 91.402 60.355 89.407 67.078 85.983 73.514" transform=""/>
  <polyline style="stroke: rgb(0, 0, 0); fill: none; stroke-width: 13;" points="73.126 86.397 66.907 89.684 60.364 91.507 53.405 92.501 46.448 92.502 40.152 91.673 33.94 89.935 27.028 85.87" transform=""/>
  <polyline style="stroke: rgb(0, 0, 0); fill: none; stroke-width: 13;" points="13.56 26.647 10.414 32.281 8.426 39.404 7.433 45.782 7.349 53.319 8.343 59.533 10.249 66.656 13.407 73.032" transform=""/>
  <polyline style="stroke: rgb(0, 0, 0); fill: none; stroke-width: 9;" points="33.936 26.17 39.796 23.173 46.566 21.778 53.447 21.711 60.185 22.957 65.924 26.02"/>
  <polyline style="stroke: rgb(0, 0, 0); fill: none; stroke-width: 9;" points="73.726 33.731 76.925 39.437 78.465 46.208 78.553 53.079 77.285 59.696 73.726 66.383"/>
  <polyline style="stroke: rgb(0, 0, 0); fill: none; stroke-width: 9;" points="66.585 73.922 60.391 77.015 53.508 78.461 46.932 78.585 39.895 77.09 33.674 73.839"/>
  <polyline style="stroke: rgb(0, 0, 0); fill: none; stroke-width: 9;" points="26.1 66.299 22.931 60.369 21.468 53.344 21.526 46.585 23.021 39.591 26.154 32.882"/>
  <polyline style="stroke: rgb(0, 0, 0); fill: none; stroke-width: 7;" points="38.756 34.981 42.653 32.813 47.322 31.648 52.168 31.615 56.822 32.689 61.029 35.001" transform=""/>
  <polyline style="stroke: rgb(0, 0, 0); fill: none; stroke-width: 7;" points="64.905 38.82 67.196 42.759 68.476 47.445 68.476 52.43 67.411 56.812 64.878 61.163" transform=""/>
  <polyline style="stroke: rgb(0, 0, 0); fill: none; stroke-width: 7;" points="61.149 64.968 57.323 67.187 52.281 68.48 47.668 68.553 43.283 67.425 38.858 65.074" transform=""/>
  <polyline style="stroke: rgb(0, 0, 0); fill: none; stroke-width: 7;" points="34.977 61.295 32.778 57.18 31.436 52.295 31.436 47.87 32.639 42.835 35.124 38.547" transform=""/>
  <circle id="origin" cx="50" cy="50" r="2.5" style="fill: rgb(255, 0, 0);"/>
</svg>