<?xml version="1.0" encoding="utf-8"?>
<svg width="100px" height="100px" viewBox="0 0 100 100" version="1.1" xmlns="http://www.w3.org/2000/svg">
  <circle id="Oval-9" cx="48.5" cy="52.5" r="14.5"/>
  <polygon points="0.172001 57.384 1.387 64.885 4.342 73.44 8.078 80.856 13.22 88.255 19.001 93.764 33.093 79.667 28.576 75.073 26.081 71.598 23.736 67.377 21.695 62.769 20.62 59.275 19.752 54.098" style="fill: rgb(3, 0, 0);"/>
  <polygon points="25.941 10.703 33.967 7.102 43.001 4.932 52.159 4.888 60.774 6.256 67.955 8.418 62.308 27.831 56.315 25.968 50.559 24.802 45.533 24.941 40.298 26.127 34.099 28.922" style="fill: rgb(3, 0, 0);"/>
  <polygon points="98.396 59.14 96.829 67.416 93.685 75.482 89.136 83.128 83.559 89.529 76.605 95.068 63.987 79.443 69.375 75.047 73.335 70.442 75.796 66.331 77.561 61.711 78.715 55.311" style="fill: rgb(3, 0, 0);"/>
  <circle id="origin" cx="48.5" cy="52.5" r="2.5" style="fill: rgb(255, 0, 0);"/>
</svg>